G75*
%MOIN*%
%OFA0B0*%
%FSLAX24Y24*%
%IPPOS*%
%LPD*%
%AMOC8*
5,1,8,0,0,1.08239X$1,22.5*
%
%ADD10C,0.0000*%
%ADD11C,0.0600*%
%ADD12C,0.0730*%
%ADD13C,0.0728*%
%ADD14C,0.0721*%
%ADD15OC8,0.0680*%
%ADD16C,0.0680*%
%ADD17C,0.1380*%
%ADD18C,0.0050*%
%ADD19R,0.0730X0.0730*%
%ADD20C,0.0820*%
%ADD21R,0.0671X0.0671*%
D10*
X000100Y000267D02*
X000100Y016763D01*
X032970Y016763D01*
X032970Y000267D01*
X000100Y000267D01*
X007950Y019667D02*
X007952Y019717D01*
X007958Y019767D01*
X007968Y019817D01*
X007981Y019865D01*
X007998Y019913D01*
X008019Y019959D01*
X008043Y020003D01*
X008071Y020045D01*
X008102Y020085D01*
X008136Y020122D01*
X008173Y020157D01*
X008212Y020188D01*
X008253Y020217D01*
X008297Y020242D01*
X008343Y020264D01*
X008390Y020282D01*
X008438Y020296D01*
X008487Y020307D01*
X008537Y020314D01*
X008587Y020317D01*
X008638Y020316D01*
X008688Y020311D01*
X008738Y020302D01*
X008786Y020290D01*
X008834Y020273D01*
X008880Y020253D01*
X008925Y020230D01*
X008968Y020203D01*
X009008Y020173D01*
X009046Y020140D01*
X009081Y020104D01*
X009114Y020065D01*
X009143Y020024D01*
X009169Y019981D01*
X009192Y019936D01*
X009211Y019889D01*
X009226Y019841D01*
X009238Y019792D01*
X009246Y019742D01*
X009250Y019692D01*
X009250Y019642D01*
X009246Y019592D01*
X009238Y019542D01*
X009226Y019493D01*
X009211Y019445D01*
X009192Y019398D01*
X009169Y019353D01*
X009143Y019310D01*
X009114Y019269D01*
X009081Y019230D01*
X009046Y019194D01*
X009008Y019161D01*
X008968Y019131D01*
X008925Y019104D01*
X008880Y019081D01*
X008834Y019061D01*
X008786Y019044D01*
X008738Y019032D01*
X008688Y019023D01*
X008638Y019018D01*
X008587Y019017D01*
X008537Y019020D01*
X008487Y019027D01*
X008438Y019038D01*
X008390Y019052D01*
X008343Y019070D01*
X008297Y019092D01*
X008253Y019117D01*
X008212Y019146D01*
X008173Y019177D01*
X008136Y019212D01*
X008102Y019249D01*
X008071Y019289D01*
X008043Y019331D01*
X008019Y019375D01*
X007998Y019421D01*
X007981Y019469D01*
X007968Y019517D01*
X007958Y019567D01*
X007952Y019617D01*
X007950Y019667D01*
D11*
X007360Y011267D02*
X006840Y011267D01*
X006840Y010267D02*
X007360Y010267D01*
X007360Y009267D02*
X006840Y009267D01*
X006840Y008267D02*
X007360Y008267D01*
X007360Y007267D02*
X006840Y007267D01*
X006840Y006267D02*
X007360Y006267D01*
X007360Y005267D02*
X006840Y005267D01*
X006840Y004267D02*
X007360Y004267D01*
X009840Y004267D02*
X010360Y004267D01*
X010360Y005267D02*
X009840Y005267D01*
X009840Y006267D02*
X010360Y006267D01*
X010360Y007267D02*
X009840Y007267D01*
X009840Y008267D02*
X010360Y008267D01*
X010360Y009267D02*
X009840Y009267D01*
X009840Y010267D02*
X010360Y010267D01*
X010360Y011267D02*
X009840Y011267D01*
X012600Y007027D02*
X012600Y006507D01*
X013600Y006507D02*
X013600Y007027D01*
X014600Y007027D02*
X014600Y006507D01*
X015600Y006507D02*
X015600Y007027D01*
X016600Y007027D02*
X016600Y006507D01*
X017600Y006507D02*
X017600Y007027D01*
X018600Y007027D02*
X018600Y006507D01*
X019600Y006507D02*
X019600Y007027D01*
X020600Y007027D02*
X020600Y006507D01*
X021600Y006507D02*
X021600Y007027D01*
X022600Y007027D02*
X022600Y006507D01*
X023600Y006507D02*
X023600Y007027D01*
X024600Y007027D02*
X024600Y006507D01*
X025600Y006507D02*
X025600Y007027D01*
X025600Y004027D02*
X025600Y003507D01*
X024600Y003507D02*
X024600Y004027D01*
X023600Y004027D02*
X023600Y003507D01*
X022600Y003507D02*
X022600Y004027D01*
X021600Y004027D02*
X021600Y003507D01*
X020600Y003507D02*
X020600Y004027D01*
X019600Y004027D02*
X019600Y003507D01*
X018600Y003507D02*
X018600Y004027D01*
X017600Y004027D02*
X017600Y003507D01*
X016600Y003507D02*
X016600Y004027D01*
X015600Y004027D02*
X015600Y003507D01*
X014600Y003507D02*
X014600Y004027D01*
X013600Y004027D02*
X013600Y003507D01*
X012600Y003507D02*
X012600Y004027D01*
X022840Y011767D02*
X023360Y011767D01*
X023360Y012767D02*
X022840Y012767D01*
X022840Y013767D02*
X023360Y013767D01*
X023360Y014767D02*
X022840Y014767D01*
X025840Y014767D02*
X026360Y014767D01*
X026360Y013767D02*
X025840Y013767D01*
X025840Y012767D02*
X026360Y012767D01*
X026360Y011767D02*
X025840Y011767D01*
D12*
X018100Y010267D03*
X016100Y010267D03*
X013100Y010267D03*
X013100Y013767D03*
X029100Y005767D03*
D13*
X021100Y013767D03*
D14*
X020100Y013767D03*
D15*
X003100Y008767D03*
X002100Y008767D03*
X002100Y007767D03*
X003100Y007767D03*
X003100Y006767D03*
X002100Y006767D03*
X002100Y005767D03*
X003100Y005767D03*
X003100Y004767D03*
X002100Y004767D03*
X002100Y003767D03*
X003100Y003767D03*
X003100Y002767D03*
X002100Y002767D03*
X002100Y001767D03*
X003100Y001767D03*
D16*
X012600Y001567D02*
X012600Y000967D01*
X013600Y000967D02*
X013600Y001567D01*
X014600Y001567D02*
X014600Y000967D01*
X015600Y000967D02*
X015600Y001567D01*
X016600Y001567D02*
X016600Y000967D01*
X017600Y000967D02*
X017600Y001567D01*
X018600Y001567D02*
X018600Y000967D01*
X019600Y000967D02*
X019600Y001567D01*
X020600Y001567D02*
X020600Y000967D01*
X021600Y000967D02*
X021600Y001567D01*
X022600Y001567D02*
X022600Y000967D01*
X023600Y000967D02*
X023600Y001567D01*
X024600Y001567D02*
X024600Y000967D01*
X025600Y000967D02*
X025600Y001567D01*
X009600Y013467D02*
X009600Y014067D01*
X008600Y014067D02*
X008600Y013467D01*
X007600Y013467D02*
X007600Y014067D01*
X003600Y014467D02*
X003600Y015067D01*
X002600Y015067D02*
X002600Y014467D01*
X031100Y014967D02*
X031100Y015567D01*
X032100Y015567D02*
X032100Y014967D01*
D17*
X008600Y019667D03*
D18*
X015832Y014582D02*
X015888Y014629D01*
X015951Y014664D01*
X016021Y014687D01*
X016093Y014695D01*
X016159Y014690D01*
X016223Y014673D01*
X016283Y014646D01*
X016338Y014609D01*
X016385Y014563D01*
X016424Y014509D01*
X016453Y014449D01*
X016470Y014385D01*
X016477Y014320D01*
X016470Y014254D01*
X016452Y014190D01*
X016423Y014131D01*
X016385Y014077D01*
X016337Y014031D01*
X016282Y013994D01*
X016222Y013967D01*
X016158Y013950D01*
X016092Y013946D01*
X016020Y013954D01*
X015951Y013975D01*
X015888Y014010D01*
X015832Y014057D01*
X015787Y014113D01*
X015754Y014177D01*
X015733Y014247D01*
X015727Y014319D01*
X015733Y014391D01*
X015753Y014461D01*
X015787Y014526D01*
X016412Y014526D01*
X016439Y014477D02*
X015762Y014477D01*
X015744Y014429D02*
X016458Y014429D01*
X016471Y014380D02*
X015732Y014380D01*
X015728Y014332D02*
X016476Y014332D01*
X016473Y014283D02*
X015730Y014283D01*
X015737Y014235D02*
X016465Y014235D01*
X016450Y014186D02*
X015751Y014186D01*
X015774Y014138D02*
X016427Y014138D01*
X016394Y014089D02*
X015806Y014089D01*
X015851Y014041D02*
X016347Y014041D01*
X016279Y013992D02*
X015920Y013992D01*
X016021Y013585D02*
X016093Y013593D01*
X016159Y013588D01*
X016223Y013571D01*
X016283Y013544D01*
X016338Y013507D01*
X016385Y013461D01*
X016424Y013407D01*
X016453Y013347D01*
X016470Y013283D01*
X016477Y013218D01*
X016470Y013152D01*
X016452Y013088D01*
X016423Y013029D01*
X016385Y012975D01*
X016337Y012929D01*
X016282Y012892D01*
X016222Y012865D01*
X016158Y012848D01*
X016092Y012844D01*
X016020Y012851D01*
X015951Y012873D01*
X015888Y012908D01*
X015832Y012955D01*
X015787Y013011D01*
X015754Y013075D01*
X015733Y013145D01*
X015727Y013217D01*
X015733Y013289D01*
X015753Y013359D01*
X015787Y013424D01*
X015832Y013480D01*
X015888Y013527D01*
X015951Y013562D01*
X016021Y013585D01*
X015939Y013556D02*
X016257Y013556D01*
X016337Y013507D02*
X015864Y013507D01*
X015815Y013459D02*
X016387Y013459D01*
X016421Y013410D02*
X015780Y013410D01*
X015755Y013362D02*
X016446Y013362D01*
X016462Y013313D02*
X015740Y013313D01*
X015731Y013265D02*
X016472Y013265D01*
X016477Y013216D02*
X015727Y013216D01*
X015731Y013168D02*
X016472Y013168D01*
X016461Y013119D02*
X015741Y013119D01*
X015756Y013071D02*
X016444Y013071D01*
X016419Y013022D02*
X015781Y013022D01*
X015817Y012974D02*
X016383Y012974D01*
X016332Y012925D02*
X015867Y012925D01*
X015945Y012877D02*
X016249Y012877D01*
X017733Y013145D02*
X017754Y013075D01*
X017787Y013011D01*
X017832Y012955D01*
X017888Y012908D01*
X017951Y012873D01*
X018020Y012851D01*
X018092Y012844D01*
X018158Y012848D01*
X018222Y012865D01*
X018282Y012892D01*
X018337Y012929D01*
X018385Y012975D01*
X018423Y013029D01*
X018452Y013088D01*
X018470Y013152D01*
X018477Y013218D01*
X018470Y013283D01*
X018453Y013347D01*
X018424Y013407D01*
X018385Y013461D01*
X018338Y013507D01*
X018283Y013544D01*
X018223Y013571D01*
X018159Y013588D01*
X018093Y013593D01*
X018021Y013585D01*
X017951Y013562D01*
X017888Y013527D01*
X017832Y013480D01*
X017787Y013424D01*
X017753Y013359D01*
X017733Y013289D01*
X017727Y013217D01*
X017733Y013145D01*
X017731Y013168D02*
X018472Y013168D01*
X018477Y013216D02*
X017727Y013216D01*
X017731Y013265D02*
X018472Y013265D01*
X018462Y013313D02*
X017740Y013313D01*
X017755Y013362D02*
X018446Y013362D01*
X018421Y013410D02*
X017780Y013410D01*
X017815Y013459D02*
X018387Y013459D01*
X018337Y013507D02*
X017864Y013507D01*
X017939Y013556D02*
X018257Y013556D01*
X018158Y013950D02*
X018092Y013946D01*
X018020Y013954D01*
X017951Y013975D01*
X017888Y014010D01*
X017832Y014057D01*
X017787Y014113D01*
X017754Y014177D01*
X017733Y014247D01*
X017727Y014319D01*
X017733Y014391D01*
X017753Y014461D01*
X017787Y014526D01*
X018412Y014526D01*
X018424Y014509D02*
X018453Y014449D01*
X018470Y014385D01*
X018477Y014320D01*
X018470Y014254D01*
X018452Y014190D01*
X018423Y014131D01*
X018385Y014077D01*
X018337Y014031D01*
X018282Y013994D01*
X018222Y013967D01*
X018158Y013950D01*
X018279Y013992D02*
X017920Y013992D01*
X017851Y014041D02*
X018347Y014041D01*
X018394Y014089D02*
X017806Y014089D01*
X017774Y014138D02*
X018427Y014138D01*
X018450Y014186D02*
X017751Y014186D01*
X017737Y014235D02*
X018465Y014235D01*
X018473Y014283D02*
X017730Y014283D01*
X017728Y014332D02*
X018476Y014332D01*
X018471Y014380D02*
X017732Y014380D01*
X017744Y014429D02*
X018458Y014429D01*
X018439Y014477D02*
X017762Y014477D01*
X017787Y014526D02*
X017832Y014582D01*
X017888Y014629D01*
X017951Y014664D01*
X018021Y014687D01*
X018093Y014695D01*
X018159Y014690D01*
X018223Y014673D01*
X018283Y014646D01*
X018338Y014609D01*
X018385Y014563D01*
X018424Y014509D01*
X018373Y014574D02*
X017826Y014574D01*
X017880Y014623D02*
X018318Y014623D01*
X018228Y014671D02*
X017973Y014671D01*
X016373Y014574D02*
X015826Y014574D01*
X015832Y014582D02*
X015787Y014526D01*
X015880Y014623D02*
X016318Y014623D01*
X016228Y014671D02*
X015973Y014671D01*
X017741Y013119D02*
X018461Y013119D01*
X018444Y013071D02*
X017756Y013071D01*
X017781Y013022D02*
X018419Y013022D01*
X018383Y012974D02*
X017817Y012974D01*
X017867Y012925D02*
X018332Y012925D01*
X018249Y012877D02*
X017945Y012877D01*
D19*
X012100Y013767D03*
X012100Y010267D03*
X028100Y005767D03*
D20*
X031600Y005767D03*
X031600Y006767D03*
X031600Y007767D03*
X031600Y008767D03*
X031600Y009767D03*
X029600Y010767D03*
X028100Y010767D03*
X028100Y009767D03*
X024100Y009767D03*
X028100Y014767D03*
X029600Y014767D03*
X031600Y004767D03*
X031380Y003157D03*
X028820Y003157D03*
X028820Y001377D03*
X031380Y001377D03*
D21*
X023600Y002267D03*
X021600Y002267D03*
X017600Y002267D03*
X016600Y002267D03*
X015600Y002267D03*
X012600Y002267D03*
X011100Y000767D03*
X004100Y001767D03*
X004100Y003767D03*
X004100Y004767D03*
X004100Y005767D03*
X004100Y007767D03*
X001100Y008767D03*
X001100Y001767D03*
X022100Y011767D03*
M02*
