%
M48
M72
T01C0.0276
T02C0.0320
T03C0.0354
T04C0.0394
T05C0.0400
T06C0.1300
%
T01
X12100Y13767
X13100Y13767
X13100Y10267
X12100Y10267
X16100Y10267
X18100Y10267
X28100Y5767
X29100Y5767
T02
X7100Y4267
X7100Y5267
X7100Y6267
X7100Y7267
X7100Y8267
X7100Y9267
X7100Y10267
X7100Y11267
X10100Y11267
X10100Y10267
X10100Y9267
X10100Y8267
X10100Y7267
X10100Y6267
X10100Y5267
X10100Y4267
X12600Y3767
X13600Y3767
X14600Y3767
X15600Y3767
X16600Y3767
X17600Y3767
X18600Y3767
X19600Y3767
X20600Y3767
X21600Y3767
X22600Y3767
X23600Y3767
X24600Y3767
X25600Y3767
X25600Y6767
X24600Y6767
X23600Y6767
X22600Y6767
X21600Y6767
X20600Y6767
X19600Y6767
X18600Y6767
X17600Y6767
X16600Y6767
X15600Y6767
X14600Y6767
X13600Y6767
X12600Y6767
X23100Y11767
X23100Y12767
X23100Y13767
X23100Y14767
X21100Y13767
X20100Y13767
X26100Y13767
X26100Y14767
X26100Y12767
X26100Y11767
T03
X24100Y9767
X28100Y9767
X28100Y10767
X29600Y10767
X29600Y14767
X28100Y14767
T04
X22100Y11767
X21600Y2267
X23600Y2267
X17600Y2267
X16600Y2267
X15600Y2267
X12600Y2267
X11100Y767
X4100Y1767
X4100Y3767
X4100Y4767
X4100Y5767
X4100Y7767
X1100Y8767
X1100Y1767
T05
X2100Y1767
X3100Y1767
X3100Y2767
X2100Y2767
X2100Y3767
X3100Y3767
X3100Y4767
X2100Y4767
X2100Y5767
X3100Y5767
X3100Y6767
X2100Y6767
X2100Y7767
X3100Y7767
X3100Y8767
X2100Y8767
X7600Y13767
X8600Y13767
X9600Y13767
X3600Y14767
X2600Y14767
X16100Y14317
X16100Y13217
X18100Y13217
X18100Y14317
X31100Y15267
X32100Y15267
X31600Y9767
X31600Y8767
X31600Y7767
X31600Y6767
X31600Y5767
X31600Y4767
X31380Y3157
X28820Y3157
X28820Y1377
X31380Y1377
X25600Y1267
X24600Y1267
X23600Y1267
X22600Y1267
X21600Y1267
X20600Y1267
X19600Y1267
X18600Y1267
X17600Y1267
X16600Y1267
X15600Y1267
X14600Y1267
X13600Y1267
X12600Y1267
T06
X8600Y19667
M30
