G75*
%MOIN*%
%OFA0B0*%
%FSLAX24Y24*%
%IPPOS*%
%LPD*%
%AMOC8*
5,1,8,0,0,1.08239X$1,22.5*
%
%ADD10C,0.0000*%
%ADD11C,0.0600*%
%ADD12C,0.0730*%
%ADD13C,0.0400*%
%ADD14OC8,0.0680*%
%ADD15C,0.0680*%
%ADD16C,0.1380*%
%ADD17C,0.0050*%
%ADD18R,0.0730X0.0730*%
%ADD19C,0.0820*%
%ADD20R,0.0671X0.0671*%
D10*
X000100Y000267D02*
X000100Y016763D01*
X032970Y016763D01*
X032970Y000267D01*
X000100Y000267D01*
X007950Y019667D02*
X007952Y019717D01*
X007958Y019767D01*
X007968Y019817D01*
X007981Y019865D01*
X007998Y019913D01*
X008019Y019959D01*
X008043Y020003D01*
X008071Y020045D01*
X008102Y020085D01*
X008136Y020122D01*
X008173Y020157D01*
X008212Y020188D01*
X008253Y020217D01*
X008297Y020242D01*
X008343Y020264D01*
X008390Y020282D01*
X008438Y020296D01*
X008487Y020307D01*
X008537Y020314D01*
X008587Y020317D01*
X008638Y020316D01*
X008688Y020311D01*
X008738Y020302D01*
X008786Y020290D01*
X008834Y020273D01*
X008880Y020253D01*
X008925Y020230D01*
X008968Y020203D01*
X009008Y020173D01*
X009046Y020140D01*
X009081Y020104D01*
X009114Y020065D01*
X009143Y020024D01*
X009169Y019981D01*
X009192Y019936D01*
X009211Y019889D01*
X009226Y019841D01*
X009238Y019792D01*
X009246Y019742D01*
X009250Y019692D01*
X009250Y019642D01*
X009246Y019592D01*
X009238Y019542D01*
X009226Y019493D01*
X009211Y019445D01*
X009192Y019398D01*
X009169Y019353D01*
X009143Y019310D01*
X009114Y019269D01*
X009081Y019230D01*
X009046Y019194D01*
X009008Y019161D01*
X008968Y019131D01*
X008925Y019104D01*
X008880Y019081D01*
X008834Y019061D01*
X008786Y019044D01*
X008738Y019032D01*
X008688Y019023D01*
X008638Y019018D01*
X008587Y019017D01*
X008537Y019020D01*
X008487Y019027D01*
X008438Y019038D01*
X008390Y019052D01*
X008343Y019070D01*
X008297Y019092D01*
X008253Y019117D01*
X008212Y019146D01*
X008173Y019177D01*
X008136Y019212D01*
X008102Y019249D01*
X008071Y019289D01*
X008043Y019331D01*
X008019Y019375D01*
X007998Y019421D01*
X007981Y019469D01*
X007968Y019517D01*
X007958Y019567D01*
X007952Y019617D01*
X007950Y019667D01*
D11*
X007360Y011267D02*
X006840Y011267D01*
X006840Y010267D02*
X007360Y010267D01*
X007360Y009267D02*
X006840Y009267D01*
X006840Y008267D02*
X007360Y008267D01*
X007360Y007267D02*
X006840Y007267D01*
X006840Y006267D02*
X007360Y006267D01*
X007360Y005267D02*
X006840Y005267D01*
X006840Y004267D02*
X007360Y004267D01*
X009840Y004267D02*
X010360Y004267D01*
X010360Y005267D02*
X009840Y005267D01*
X009840Y006267D02*
X010360Y006267D01*
X010360Y007267D02*
X009840Y007267D01*
X009840Y008267D02*
X010360Y008267D01*
X010360Y009267D02*
X009840Y009267D01*
X009840Y010267D02*
X010360Y010267D01*
X010360Y011267D02*
X009840Y011267D01*
X012600Y007027D02*
X012600Y006507D01*
X013600Y006507D02*
X013600Y007027D01*
X014600Y007027D02*
X014600Y006507D01*
X015600Y006507D02*
X015600Y007027D01*
X016600Y007027D02*
X016600Y006507D01*
X017600Y006507D02*
X017600Y007027D01*
X018600Y007027D02*
X018600Y006507D01*
X019600Y006507D02*
X019600Y007027D01*
X020600Y007027D02*
X020600Y006507D01*
X021600Y006507D02*
X021600Y007027D01*
X022600Y007027D02*
X022600Y006507D01*
X023600Y006507D02*
X023600Y007027D01*
X024600Y007027D02*
X024600Y006507D01*
X025600Y006507D02*
X025600Y007027D01*
X025600Y004027D02*
X025600Y003507D01*
X024600Y003507D02*
X024600Y004027D01*
X023600Y004027D02*
X023600Y003507D01*
X022600Y003507D02*
X022600Y004027D01*
X021600Y004027D02*
X021600Y003507D01*
X020600Y003507D02*
X020600Y004027D01*
X019600Y004027D02*
X019600Y003507D01*
X018600Y003507D02*
X018600Y004027D01*
X017600Y004027D02*
X017600Y003507D01*
X016600Y003507D02*
X016600Y004027D01*
X015600Y004027D02*
X015600Y003507D01*
X014600Y003507D02*
X014600Y004027D01*
X013600Y004027D02*
X013600Y003507D01*
X012600Y003507D02*
X012600Y004027D01*
X022840Y011767D02*
X023360Y011767D01*
X023360Y012767D02*
X022840Y012767D01*
X022840Y013767D02*
X023360Y013767D01*
X023360Y014767D02*
X022840Y014767D01*
X025840Y014767D02*
X026360Y014767D01*
X026360Y013767D02*
X025840Y013767D01*
X025840Y012767D02*
X026360Y012767D01*
X026360Y011767D02*
X025840Y011767D01*
D12*
X018100Y010267D03*
X016100Y010267D03*
X013100Y010267D03*
X013100Y013767D03*
X029100Y005767D03*
D13*
X021100Y013767D03*
X020100Y013767D03*
D14*
X003100Y008767D03*
X002100Y008767D03*
X002100Y007767D03*
X003100Y007767D03*
X003100Y006767D03*
X002100Y006767D03*
X002100Y005767D03*
X003100Y005767D03*
X003100Y004767D03*
X002100Y004767D03*
X002100Y003767D03*
X003100Y003767D03*
X003100Y002767D03*
X002100Y002767D03*
X002100Y001767D03*
X003100Y001767D03*
D15*
X012600Y001567D02*
X012600Y000967D01*
X013600Y000967D02*
X013600Y001567D01*
X014600Y001567D02*
X014600Y000967D01*
X015600Y000967D02*
X015600Y001567D01*
X016600Y001567D02*
X016600Y000967D01*
X017600Y000967D02*
X017600Y001567D01*
X018600Y001567D02*
X018600Y000967D01*
X019600Y000967D02*
X019600Y001567D01*
X020600Y001567D02*
X020600Y000967D01*
X021600Y000967D02*
X021600Y001567D01*
X022600Y001567D02*
X022600Y000967D01*
X023600Y000967D02*
X023600Y001567D01*
X024600Y001567D02*
X024600Y000967D01*
X025600Y000967D02*
X025600Y001567D01*
X009600Y013467D02*
X009600Y014067D01*
X008600Y014067D02*
X008600Y013467D01*
X007600Y013467D02*
X007600Y014067D01*
X003600Y014467D02*
X003600Y015067D01*
X002600Y015067D02*
X002600Y014467D01*
X031100Y014967D02*
X031100Y015567D01*
X032100Y015567D02*
X032100Y014967D01*
D16*
X008600Y019667D03*
D17*
X015962Y014427D02*
X015988Y014455D01*
X016020Y014476D01*
X016056Y014489D01*
X016094Y014495D01*
X016134Y014491D01*
X016172Y014479D01*
X016207Y014458D01*
X016236Y014431D01*
X016258Y014397D01*
X016272Y014359D01*
X016278Y014320D01*
X016273Y014280D01*
X016259Y014243D01*
X016237Y014210D01*
X016209Y014182D01*
X016175Y014162D01*
X016137Y014149D01*
X016098Y014146D01*
X016060Y014150D01*
X016023Y014163D01*
X015991Y014184D01*
X015964Y014212D01*
X015943Y014245D01*
X015931Y014281D01*
X015927Y014320D01*
X015930Y014358D01*
X015942Y014394D01*
X015962Y014427D01*
X015963Y014429D02*
X016237Y014429D01*
X016265Y014380D02*
X015938Y014380D01*
X015928Y014332D02*
X016276Y014332D01*
X016273Y014283D02*
X015931Y014283D01*
X015950Y014235D02*
X016254Y014235D01*
X016213Y014186D02*
X015989Y014186D01*
X016023Y014477D02*
X016175Y014477D01*
X016094Y013393D02*
X016134Y013389D01*
X016172Y013377D01*
X016207Y013356D01*
X016236Y013329D01*
X016258Y013295D01*
X016272Y013257D01*
X016278Y013218D01*
X016273Y013178D01*
X016259Y013141D01*
X016237Y013108D01*
X016209Y013080D01*
X016175Y013060D01*
X016137Y013047D01*
X016098Y013044D01*
X016060Y013048D01*
X016023Y013061D01*
X015991Y013082D01*
X015964Y013110D01*
X015943Y013143D01*
X015931Y013179D01*
X015927Y013218D01*
X015930Y013256D01*
X015942Y013292D01*
X015962Y013325D01*
X015988Y013353D01*
X016020Y013374D01*
X016056Y013387D01*
X016094Y013393D01*
X016002Y013362D02*
X016198Y013362D01*
X016246Y013313D02*
X015955Y013313D01*
X015933Y013265D02*
X016270Y013265D01*
X016278Y013216D02*
X015927Y013216D01*
X015935Y013168D02*
X016269Y013168D01*
X016245Y013119D02*
X015958Y013119D01*
X016009Y013071D02*
X016193Y013071D01*
X017927Y013218D02*
X017931Y013179D01*
X017943Y013143D01*
X017964Y013110D01*
X017991Y013082D01*
X018023Y013061D01*
X018060Y013048D01*
X018098Y013044D01*
X018137Y013047D01*
X018175Y013060D01*
X018209Y013080D01*
X018237Y013108D01*
X018259Y013141D01*
X018273Y013178D01*
X018278Y013218D01*
X018272Y013257D01*
X018258Y013295D01*
X018236Y013329D01*
X018207Y013356D01*
X018172Y013377D01*
X018134Y013389D01*
X018094Y013393D01*
X018056Y013387D01*
X018020Y013374D01*
X017988Y013353D01*
X017962Y013325D01*
X017942Y013292D01*
X017930Y013256D01*
X017927Y013218D01*
X017927Y013216D02*
X018278Y013216D01*
X018269Y013168D02*
X017935Y013168D01*
X017958Y013119D02*
X018245Y013119D01*
X018193Y013071D02*
X018009Y013071D01*
X017933Y013265D02*
X018270Y013265D01*
X018246Y013313D02*
X017955Y013313D01*
X018002Y013362D02*
X018198Y013362D01*
X018137Y014149D02*
X018098Y014146D01*
X018060Y014150D01*
X018023Y014163D01*
X017991Y014184D01*
X017964Y014212D01*
X017943Y014245D01*
X017931Y014281D01*
X017927Y014320D01*
X017930Y014358D01*
X017942Y014394D01*
X017962Y014427D01*
X017988Y014455D01*
X018020Y014476D01*
X018056Y014489D01*
X018094Y014495D01*
X018134Y014491D01*
X018172Y014479D01*
X018207Y014458D01*
X018236Y014431D01*
X018258Y014397D01*
X018272Y014359D01*
X018278Y014320D01*
X018273Y014280D01*
X018259Y014243D01*
X018237Y014210D01*
X018209Y014182D01*
X018175Y014162D01*
X018137Y014149D01*
X018213Y014186D02*
X017989Y014186D01*
X017950Y014235D02*
X018254Y014235D01*
X018273Y014283D02*
X017931Y014283D01*
X017928Y014332D02*
X018276Y014332D01*
X018265Y014380D02*
X017938Y014380D01*
X017963Y014429D02*
X018237Y014429D01*
X018175Y014477D02*
X018023Y014477D01*
D18*
X012100Y013767D03*
X012100Y010267D03*
X028100Y005767D03*
D19*
X031600Y005767D03*
X031600Y006767D03*
X031600Y007767D03*
X031600Y008767D03*
X031600Y009767D03*
X029600Y010767D03*
X028100Y010767D03*
X028100Y009767D03*
X024100Y009767D03*
X028100Y014767D03*
X029600Y014767D03*
X031600Y004767D03*
X031380Y003157D03*
X028820Y003157D03*
X028820Y001377D03*
X031380Y001377D03*
D20*
X023600Y002267D03*
X021600Y002267D03*
X017600Y002267D03*
X016600Y002267D03*
X015600Y002267D03*
X012600Y002267D03*
X011100Y000767D03*
X004100Y001767D03*
X004100Y003767D03*
X004100Y004767D03*
X004100Y005767D03*
X004100Y007767D03*
X001100Y008767D03*
X001100Y001767D03*
X022100Y011767D03*
M02*
